<mxfile host="diagram.qzrok.cn" modified="2020-09-02T02:12:10.074Z" agent="Mozilla/5.0 (Windows NT 10.0; Win64; x64) AppleWebKit/537.36 (KHTML, like Gecko) Chrome/80.0.3987.149 Safari/537.36" etag="NoZXXmNvBJha3-zpnmHc" version="12.9.3" type="github">
  <diagram id="h16Xs7fUl1hrcwad8TVB" name="第 1 页">
    <mxGraphModel dx="981" dy="547" grid="1" gridSize="10" guides="1" tooltips="1" connect="1" arrows="1" fold="1" page="1" pageScale="1" pageWidth="827" pageHeight="1169" math="0" shadow="0">
      <root>
        <mxCell id="0" />
        <mxCell id="1" parent="0" />
        <mxCell id="bSb0xBYi_r1bNNY1Vltu-1" value="&lt;a href=&quot;http://192.168.0.110:9000/api-gateway/user-service/api/v1.1/users&quot; style=&quot;box-sizing: border-box ; cursor: pointer ; font-family: &amp;#34;open sans&amp;#34; , &amp;#34;clear sans&amp;#34; , &amp;#34;helvetica neue&amp;#34; , &amp;#34;helvetica&amp;#34; , &amp;#34;arial&amp;#34; , sans-serif ; font-size: 26px ; white-space: pre-wrap ; background-color: rgb(255 , 255 , 255)&quot;&gt;&lt;font color=&quot;#ff0808&quot;&gt;http://&lt;/font&gt;&lt;/a&gt;&lt;a href=&quot;http://192.168.0.110:9000/api-gateway/user-service/api/v1.1/users&quot; style=&quot;box-sizing: border-box ; cursor: pointer ; font-family: &amp;#34;open sans&amp;#34; , &amp;#34;clear sans&amp;#34; , &amp;#34;helvetica neue&amp;#34; , &amp;#34;helvetica&amp;#34; , &amp;#34;arial&amp;#34; , sans-serif ; font-size: 26px ; white-space: pre-wrap ; background-color: rgb(255 , 255 , 255)&quot;&gt;&lt;font color=&quot;#a6ff0d&quot;&gt;192.168.0.110&lt;/font&gt;&lt;/a&gt;&lt;a href=&quot;http://192.168.0.110:9000/api-gateway/user-service/api/v1.1/users&quot; style=&quot;box-sizing: border-box ; cursor: pointer ; color: rgb(65 , 131 , 196) ; font-family: &amp;#34;open sans&amp;#34; , &amp;#34;clear sans&amp;#34; , &amp;#34;helvetica neue&amp;#34; , &amp;#34;helvetica&amp;#34; , &amp;#34;arial&amp;#34; , sans-serif ; font-size: 26px ; white-space: pre-wrap ; background-color: rgb(255 , 255 , 255)&quot;&gt;:&lt;/a&gt;&lt;a href=&quot;http://192.168.0.110:9000/api-gateway/user-service/api/v1.1/users&quot; style=&quot;box-sizing: border-box ; cursor: pointer ; font-family: &amp;#34;open sans&amp;#34; , &amp;#34;clear sans&amp;#34; , &amp;#34;helvetica neue&amp;#34; , &amp;#34;helvetica&amp;#34; , &amp;#34;arial&amp;#34; , sans-serif ; font-size: 26px ; white-space: pre-wrap ; background-color: rgb(255 , 255 , 255)&quot;&gt;&lt;font color=&quot;#1cffc2&quot;&gt;9000&lt;/font&gt;&lt;/a&gt;&lt;a href=&quot;http://192.168.0.110:9000/api-gateway/user-service/api/v1.1/users&quot; style=&quot;box-sizing: border-box ; cursor: pointer ; color: rgb(65 , 131 , 196) ; font-family: &amp;#34;open sans&amp;#34; , &amp;#34;clear sans&amp;#34; , &amp;#34;helvetica neue&amp;#34; , &amp;#34;helvetica&amp;#34; , &amp;#34;arial&amp;#34; , sans-serif ; font-size: 26px ; white-space: pre-wrap ; background-color: rgb(255 , 255 , 255)&quot;&gt;/&lt;/a&gt;&lt;a href=&quot;http://192.168.0.110:9000/api-gateway/user-service/api/v1.1/users&quot; style=&quot;box-sizing: border-box ; cursor: pointer ; font-family: &amp;#34;open sans&amp;#34; , &amp;#34;clear sans&amp;#34; , &amp;#34;helvetica neue&amp;#34; , &amp;#34;helvetica&amp;#34; , &amp;#34;arial&amp;#34; , sans-serif ; font-size: 26px ; white-space: pre-wrap ; background-color: rgb(255 , 255 , 255)&quot;&gt;&lt;font color=&quot;#1222ff&quot;&gt;api-gateway&lt;/font&gt;&lt;/a&gt;&lt;a href=&quot;http://192.168.0.110:9000/api-gateway/user-service/api/v1.1/users&quot; style=&quot;box-sizing: border-box ; cursor: pointer ; color: rgb(65 , 131 , 196) ; font-family: &amp;#34;open sans&amp;#34; , &amp;#34;clear sans&amp;#34; , &amp;#34;helvetica neue&amp;#34; , &amp;#34;helvetica&amp;#34; , &amp;#34;arial&amp;#34; , sans-serif ; font-size: 26px ; white-space: pre-wrap ; background-color: rgb(255 , 255 , 255)&quot;&gt;/&lt;/a&gt;&lt;a href=&quot;http://192.168.0.110:9000/api-gateway/user-service/api/v1.1/users&quot; style=&quot;box-sizing: border-box ; cursor: pointer ; font-family: &amp;#34;open sans&amp;#34; , &amp;#34;clear sans&amp;#34; , &amp;#34;helvetica neue&amp;#34; , &amp;#34;helvetica&amp;#34; , &amp;#34;arial&amp;#34; , sans-serif ; font-size: 26px ; white-space: pre-wrap ; background-color: rgb(255 , 255 , 255)&quot;&gt;&lt;font color=&quot;#cf0dff&quot;&gt;user-service&lt;/font&gt;&lt;/a&gt;&lt;a href=&quot;http://192.168.0.110:9000/api-gateway/user-service/api/v1.1/users&quot; style=&quot;box-sizing: border-box ; cursor: pointer ; color: rgb(65 , 131 , 196) ; font-family: &amp;#34;open sans&amp;#34; , &amp;#34;clear sans&amp;#34; , &amp;#34;helvetica neue&amp;#34; , &amp;#34;helvetica&amp;#34; , &amp;#34;arial&amp;#34; , sans-serif ; font-size: 26px ; white-space: pre-wrap ; background-color: rgb(255 , 255 , 255)&quot;&gt;/&lt;/a&gt;&lt;a href=&quot;http://192.168.0.110:9000/api-gateway/user-service/api/v1.1/users&quot; style=&quot;box-sizing: border-box ; cursor: pointer ; font-family: &amp;#34;open sans&amp;#34; , &amp;#34;clear sans&amp;#34; , &amp;#34;helvetica neue&amp;#34; , &amp;#34;helvetica&amp;#34; , &amp;#34;arial&amp;#34; , sans-serif ; font-size: 26px ; white-space: pre-wrap ; background-color: rgb(255 , 255 , 255)&quot;&gt;&lt;font color=&quot;#ff0aff&quot;&gt;api/v1.1&lt;/font&gt;&lt;/a&gt;&lt;a href=&quot;http://192.168.0.110:9000/api-gateway/user-service/api/v1.1/users&quot; style=&quot;box-sizing: border-box ; cursor: pointer ; color: rgb(65 , 131 , 196) ; font-family: &amp;#34;open sans&amp;#34; , &amp;#34;clear sans&amp;#34; , &amp;#34;helvetica neue&amp;#34; , &amp;#34;helvetica&amp;#34; , &amp;#34;arial&amp;#34; , sans-serif ; font-size: 26px ; white-space: pre-wrap ; background-color: rgb(255 , 255 , 255)&quot;&gt;/&lt;/a&gt;&lt;a href=&quot;http://192.168.0.110:9000/api-gateway/user-service/api/v1.1/users&quot; style=&quot;box-sizing: border-box ; cursor: pointer ; font-family: &amp;#34;open sans&amp;#34; , &amp;#34;clear sans&amp;#34; , &amp;#34;helvetica neue&amp;#34; , &amp;#34;helvetica&amp;#34; , &amp;#34;arial&amp;#34; , sans-serif ; font-size: 26px ; white-space: pre-wrap ; background-color: rgb(255 , 255 , 255)&quot;&gt;&lt;font color=&quot;#ff0d55&quot;&gt;users&lt;/font&gt;&lt;/a&gt;" style="text;html=1;strokeColor=none;fillColor=none;align=center;verticalAlign=middle;whiteSpace=wrap;rounded=0;fontSize=26;" vertex="1" parent="1">
          <mxGeometry x="10" y="350" width="780" height="70" as="geometry" />
        </mxCell>
        <mxCell id="bSb0xBYi_r1bNNY1Vltu-2" value="" style="endArrow=none;html=1;fontSize=26;endSize=0;startSize=0;rounded=0;fontColor=#FF1A12;strokeColor=#FF0A0A;" edge="1" parent="1">
          <mxGeometry width="50" height="50" relative="1" as="geometry">
            <mxPoint x="20" y="430" as="sourcePoint" />
            <mxPoint x="80" y="430" as="targetPoint" />
            <Array as="points">
              <mxPoint x="20" y="450" />
              <mxPoint x="80" y="450" />
            </Array>
          </mxGeometry>
        </mxCell>
        <mxCell id="bSb0xBYi_r1bNNY1Vltu-4" value="" style="endArrow=none;html=1;fontSize=26;endSize=0;startSize=0;rounded=0;strokeColor=#76FF0D;" edge="1" parent="1">
          <mxGeometry width="50" height="50" relative="1" as="geometry">
            <mxPoint x="90.00000000000011" y="449.9999999999999" as="sourcePoint" />
            <mxPoint x="241" y="450" as="targetPoint" />
            <Array as="points">
              <mxPoint x="90" y="470" />
              <mxPoint x="241" y="470" />
            </Array>
          </mxGeometry>
        </mxCell>
        <mxCell id="bSb0xBYi_r1bNNY1Vltu-6" value="" style="endArrow=none;html=1;fontSize=26;endSize=0;startSize=0;rounded=0;strokeColor=#0DF7FF;" edge="1" parent="1">
          <mxGeometry width="50" height="50" relative="1" as="geometry">
            <mxPoint x="256.0000000000001" y="469.9999999999999" as="sourcePoint" />
            <mxPoint x="310" y="470" as="targetPoint" />
            <Array as="points">
              <mxPoint x="256" y="490" />
              <mxPoint x="310" y="490" />
            </Array>
          </mxGeometry>
        </mxCell>
        <mxCell id="bSb0xBYi_r1bNNY1Vltu-7" value="" style="endArrow=none;html=1;fontSize=26;endSize=0;startSize=0;rounded=0;strokeColor=#1975FF;" edge="1" parent="1">
          <mxGeometry width="50" height="50" relative="1" as="geometry">
            <mxPoint x="320" y="489.9999999999999" as="sourcePoint" />
            <mxPoint x="460" y="490" as="targetPoint" />
            <Array as="points">
              <mxPoint x="320" y="510" />
              <mxPoint x="460" y="510" />
            </Array>
          </mxGeometry>
        </mxCell>
        <mxCell id="bSb0xBYi_r1bNNY1Vltu-8" value="" style="endArrow=none;html=1;fontSize=26;endSize=0;startSize=0;rounded=0;strokeColor=#EF14FF;" edge="1" parent="1">
          <mxGeometry width="50" height="50" relative="1" as="geometry">
            <mxPoint x="470" y="504.9999999999999" as="sourcePoint" />
            <mxPoint x="600" y="505" as="targetPoint" />
            <Array as="points">
              <mxPoint x="470" y="525" />
              <mxPoint x="600" y="525" />
            </Array>
          </mxGeometry>
        </mxCell>
        <mxCell id="bSb0xBYi_r1bNNY1Vltu-9" value="" style="endArrow=none;html=1;fontSize=26;endSize=0;startSize=0;rounded=0;strokeColor=#FF42EC;" edge="1" parent="1">
          <mxGeometry width="50" height="50" relative="1" as="geometry">
            <mxPoint x="610" y="519.9999999999999" as="sourcePoint" />
            <mxPoint x="710" y="520" as="targetPoint" />
            <Array as="points">
              <mxPoint x="610" y="540" />
              <mxPoint x="710" y="540" />
            </Array>
          </mxGeometry>
        </mxCell>
        <mxCell id="bSb0xBYi_r1bNNY1Vltu-10" value="" style="endArrow=none;html=1;fontSize=26;endSize=0;startSize=0;rounded=0;strokeColor=#FF1249;" edge="1" parent="1">
          <mxGeometry width="50" height="50" relative="1" as="geometry">
            <mxPoint x="720" y="534.9999999999999" as="sourcePoint" />
            <mxPoint x="800" y="555" as="targetPoint" />
            <Array as="points">
              <mxPoint x="720" y="555" />
            </Array>
          </mxGeometry>
        </mxCell>
        <mxCell id="bSb0xBYi_r1bNNY1Vltu-11" value="&lt;font style=&quot;font-size: 20px;&quot;&gt;协议&lt;/font&gt;" style="text;html=1;align=center;verticalAlign=middle;resizable=0;points=[];autosize=1;fontSize=20;" vertex="1" parent="1">
          <mxGeometry x="17" y="470" width="60" height="30" as="geometry" />
        </mxCell>
        <mxCell id="bSb0xBYi_r1bNNY1Vltu-12" value="主机" style="text;html=1;align=center;verticalAlign=middle;resizable=0;points=[];autosize=1;fontSize=20;" vertex="1" parent="1">
          <mxGeometry x="130" y="480" width="60" height="30" as="geometry" />
        </mxCell>
        <mxCell id="bSb0xBYi_r1bNNY1Vltu-13" value="端口" style="text;html=1;align=center;verticalAlign=middle;resizable=0;points=[];autosize=1;fontSize=20;" vertex="1" parent="1">
          <mxGeometry x="250" y="500" width="60" height="30" as="geometry" />
        </mxCell>
        <mxCell id="bSb0xBYi_r1bNNY1Vltu-14" value="网关名" style="text;html=1;align=center;verticalAlign=middle;resizable=0;points=[];autosize=1;fontSize=20;" vertex="1" parent="1">
          <mxGeometry x="350" y="520" width="80" height="30" as="geometry" />
        </mxCell>
        <mxCell id="bSb0xBYi_r1bNNY1Vltu-15" value="服务名" style="text;html=1;align=center;verticalAlign=middle;resizable=0;points=[];autosize=1;fontSize=20;" vertex="1" parent="1">
          <mxGeometry x="500" y="530" width="80" height="30" as="geometry" />
        </mxCell>
        <mxCell id="bSb0xBYi_r1bNNY1Vltu-16" value="API版本" style="text;html=1;align=center;verticalAlign=middle;resizable=0;points=[];autosize=1;fontSize=20;" vertex="1" parent="1">
          <mxGeometry x="610" y="550" width="90" height="30" as="geometry" />
        </mxCell>
        <mxCell id="bSb0xBYi_r1bNNY1Vltu-17" value="服务资源名" style="text;html=1;align=center;verticalAlign=middle;resizable=0;points=[];autosize=1;fontSize=20;" vertex="1" parent="1">
          <mxGeometry x="707" y="570" width="120" height="30" as="geometry" />
        </mxCell>
      </root>
    </mxGraphModel>
  </diagram>
</mxfile>
